<mxfile host="app.diagrams.net" modified="2024-04-21T00:23:19.345Z" agent="Mozilla/5.0 (Windows NT 10.0; Win64; x64; rv:125.0) Gecko/20100101 Firefox/125.0" etag="92p_7padvqaFB-Of1vG4" version="24.2.7" type="device">
  <diagram name="Page-1" id="42789a77-a242-8287-6e28-9cd8cfd52e62">
    <mxGraphModel dx="1687" dy="1026" grid="1" gridSize="10" guides="1" tooltips="1" connect="1" arrows="1" fold="1" page="1" pageScale="1" pageWidth="1100" pageHeight="850" background="none" math="0" shadow="0">
      <root>
        <mxCell id="0" />
        <mxCell id="1" parent="0" />
        <mxCell id="1ea317790d2ca983-13" value="relation" style="edgeStyle=none;rounded=1;labelBackgroundColor=none;startArrow=none;startFill=0;endArrow=none;endFill=0;jettySize=auto;orthogonalLoop=1;strokeColor=#1E8CFF;strokeWidth=6;fontFamily=Verdana;fontSize=12;flowAnimation=0;shadow=0;html=1;fontColor=none;noLabel=1;" parent="1" source="1ea317790d2ca983-1" target="1ea317790d2ca983-9" edge="1">
          <mxGeometry relative="1" as="geometry" />
        </mxCell>
        <mxCell id="1ea317790d2ca983-14" value="relation" style="edgeStyle=none;rounded=1;html=1;labelBackgroundColor=none;startArrow=none;startFill=0;startSize=5;endArrow=none;endFill=0;endSize=5;jettySize=auto;orthogonalLoop=1;strokeColor=#1E8CFF;strokeWidth=6;fontFamily=Verdana;fontSize=12;fontColor=none;noLabel=1;" parent="1" source="1ea317790d2ca983-1" target="1ea317790d2ca983-3" edge="1">
          <mxGeometry relative="1" as="geometry" />
        </mxCell>
        <mxCell id="1ea317790d2ca983-1" value="Starting&amp;nbsp;&lt;div&gt;node&lt;/div&gt;" style="ellipse;whiteSpace=wrap;html=1;rounded=0;shadow=1;comic=0;labelBackgroundColor=none;strokeWidth=1;fontFamily=Verdana;fontSize=12;align=center;fontColor=none;noLabel=1;" parent="1" vertex="1">
          <mxGeometry x="480" y="260" width="120" height="120" as="geometry" />
        </mxCell>
        <mxCell id="1ea317790d2ca983-3" value="&lt;span&gt;Node 3&lt;/span&gt;" style="ellipse;whiteSpace=wrap;html=1;rounded=0;shadow=1;comic=0;labelBackgroundColor=none;strokeWidth=1;fontFamily=Verdana;fontSize=12;align=center;fontColor=none;noLabel=1;" parent="1" vertex="1">
          <mxGeometry x="750" y="400" width="100" height="100" as="geometry" />
        </mxCell>
        <mxCell id="1ea317790d2ca983-9" value="Node 1" style="ellipse;whiteSpace=wrap;html=1;rounded=0;shadow=1;comic=0;labelBackgroundColor=none;strokeWidth=1;fontFamily=Verdana;fontSize=12;align=center;fontColor=none;noLabel=1;" parent="1" vertex="1">
          <mxGeometry x="230" y="400" width="100" height="100" as="geometry" />
        </mxCell>
        <mxCell id="O71zmAS3OTAFvLwmvDvT-1" value="relation" style="edgeStyle=none;rounded=1;labelBackgroundColor=none;startArrow=none;startFill=0;endArrow=none;endFill=0;jettySize=auto;orthogonalLoop=1;strokeColor=#1E8CFF;strokeWidth=5;fontFamily=Verdana;fontSize=12;flowAnimation=0;shadow=0;html=1;fontColor=none;noLabel=1;exitX=0;exitY=1;exitDx=0;exitDy=0;" parent="1" source="1ea317790d2ca983-9" target="O71zmAS3OTAFvLwmvDvT-2" edge="1">
          <mxGeometry relative="1" as="geometry">
            <mxPoint x="283" y="380" as="sourcePoint" />
          </mxGeometry>
        </mxCell>
        <mxCell id="O71zmAS3OTAFvLwmvDvT-2" value="Node 1" style="ellipse;whiteSpace=wrap;html=1;rounded=0;shadow=1;comic=0;labelBackgroundColor=none;strokeWidth=1;fontFamily=Verdana;fontSize=12;align=center;fontColor=none;noLabel=1;" parent="1" vertex="1">
          <mxGeometry x="110" y="540" width="80" height="80" as="geometry" />
        </mxCell>
        <mxCell id="O71zmAS3OTAFvLwmvDvT-3" value="relation" style="edgeStyle=none;rounded=1;labelBackgroundColor=none;startArrow=none;startFill=0;endArrow=none;endFill=0;jettySize=auto;orthogonalLoop=1;strokeColor=#1E8CFF;strokeWidth=5;fontFamily=Verdana;fontSize=12;flowAnimation=0;shadow=0;html=1;fontColor=none;noLabel=1;exitX=1;exitY=1;exitDx=0;exitDy=0;" parent="1" source="1ea317790d2ca983-9" target="O71zmAS3OTAFvLwmvDvT-4" edge="1">
          <mxGeometry relative="1" as="geometry">
            <mxPoint x="373" y="480" as="sourcePoint" />
          </mxGeometry>
        </mxCell>
        <mxCell id="O71zmAS3OTAFvLwmvDvT-4" value="Node 1" style="ellipse;whiteSpace=wrap;html=1;rounded=0;shadow=1;comic=0;labelBackgroundColor=none;strokeWidth=1;fontFamily=Verdana;fontSize=12;align=center;fontColor=none;noLabel=1;" parent="1" vertex="1">
          <mxGeometry x="370" y="540" width="80" height="80" as="geometry" />
        </mxCell>
        <mxCell id="O71zmAS3OTAFvLwmvDvT-5" value="relation" style="edgeStyle=none;rounded=1;labelBackgroundColor=none;startArrow=none;startFill=0;endArrow=none;endFill=0;jettySize=auto;orthogonalLoop=1;strokeColor=#1E8CFF;strokeWidth=5;fontFamily=Verdana;fontSize=12;flowAnimation=0;shadow=0;html=1;fontColor=none;noLabel=1;exitX=1;exitY=1;exitDx=0;exitDy=0;" parent="1" source="1ea317790d2ca983-3" target="O71zmAS3OTAFvLwmvDvT-6" edge="1">
          <mxGeometry relative="1" as="geometry">
            <mxPoint x="893" y="515" as="sourcePoint" />
          </mxGeometry>
        </mxCell>
        <mxCell id="O71zmAS3OTAFvLwmvDvT-6" value="Node 1" style="ellipse;whiteSpace=wrap;html=1;rounded=0;shadow=1;comic=0;labelBackgroundColor=none;strokeWidth=1;fontFamily=Verdana;fontSize=12;align=center;fontColor=none;noLabel=1;" parent="1" vertex="1">
          <mxGeometry x="890" y="540" width="80" height="80" as="geometry" />
        </mxCell>
        <mxCell id="O71zmAS3OTAFvLwmvDvT-7" value="relation" style="edgeStyle=none;rounded=1;labelBackgroundColor=none;startArrow=none;startFill=0;endArrow=none;endFill=0;jettySize=auto;orthogonalLoop=1;strokeColor=#1E8CFF;strokeWidth=5;fontFamily=Verdana;fontSize=12;flowAnimation=0;shadow=0;html=1;fontColor=none;noLabel=1;" parent="1" source="1ea317790d2ca983-3" target="O71zmAS3OTAFvLwmvDvT-8" edge="1">
          <mxGeometry relative="1" as="geometry">
            <mxPoint x="703" y="490" as="sourcePoint" />
          </mxGeometry>
        </mxCell>
        <mxCell id="O71zmAS3OTAFvLwmvDvT-8" value="Node 1" style="ellipse;whiteSpace=wrap;html=1;rounded=0;shadow=1;comic=0;labelBackgroundColor=none;strokeWidth=1;fontFamily=Verdana;fontSize=12;align=center;fontColor=none;noLabel=1;" parent="1" vertex="1">
          <mxGeometry x="630" y="540" width="80" height="80" as="geometry" />
        </mxCell>
        <mxCell id="O71zmAS3OTAFvLwmvDvT-9" value="relation" style="edgeStyle=none;rounded=1;labelBackgroundColor=none;startArrow=none;startFill=0;endArrow=none;endFill=0;jettySize=auto;orthogonalLoop=1;strokeColor=#1E8CFF;strokeWidth=4;fontFamily=Verdana;fontSize=12;flowAnimation=0;shadow=0;html=1;fontColor=none;noLabel=1;exitX=0;exitY=1;exitDx=0;exitDy=0;" parent="1" source="O71zmAS3OTAFvLwmvDvT-2" target="O71zmAS3OTAFvLwmvDvT-10" edge="1">
          <mxGeometry relative="1" as="geometry">
            <mxPoint x="139" y="480" as="sourcePoint" />
          </mxGeometry>
        </mxCell>
        <mxCell id="O71zmAS3OTAFvLwmvDvT-10" value="Node 1" style="ellipse;whiteSpace=wrap;html=1;rounded=0;shadow=1;comic=0;labelBackgroundColor=none;strokeWidth=1;fontFamily=Verdana;fontSize=12;align=center;fontColor=none;noLabel=1;" parent="1" vertex="1">
          <mxGeometry x="55" y="680" width="60" height="60" as="geometry" />
        </mxCell>
        <mxCell id="O71zmAS3OTAFvLwmvDvT-11" value="relation" style="edgeStyle=none;rounded=1;labelBackgroundColor=none;startArrow=none;startFill=0;endArrow=none;endFill=0;jettySize=auto;orthogonalLoop=1;strokeColor=#1E8CFF;strokeWidth=4;fontFamily=Verdana;fontSize=12;flowAnimation=0;shadow=0;html=1;fontColor=none;noLabel=1;exitX=1;exitY=1;exitDx=0;exitDy=0;" parent="1" source="O71zmAS3OTAFvLwmvDvT-2" target="O71zmAS3OTAFvLwmvDvT-12" edge="1">
          <mxGeometry relative="1" as="geometry">
            <mxPoint x="209" y="501" as="sourcePoint" />
          </mxGeometry>
        </mxCell>
        <mxCell id="O71zmAS3OTAFvLwmvDvT-12" value="Node 1" style="ellipse;whiteSpace=wrap;html=1;rounded=0;shadow=1;comic=0;labelBackgroundColor=none;strokeWidth=1;fontFamily=Verdana;fontSize=12;align=center;fontColor=none;noLabel=1;" parent="1" vertex="1">
          <mxGeometry x="185" y="680" width="60" height="60" as="geometry" />
        </mxCell>
        <mxCell id="O71zmAS3OTAFvLwmvDvT-13" value="relation" style="edgeStyle=none;rounded=1;labelBackgroundColor=none;startArrow=none;startFill=0;endArrow=none;endFill=0;jettySize=auto;orthogonalLoop=1;strokeColor=#1E8CFF;strokeWidth=4;fontFamily=Verdana;fontSize=12;flowAnimation=0;shadow=0;html=1;fontColor=none;noLabel=1;exitX=0;exitY=1;exitDx=0;exitDy=0;" parent="1" source="O71zmAS3OTAFvLwmvDvT-4" target="O71zmAS3OTAFvLwmvDvT-14" edge="1">
          <mxGeometry relative="1" as="geometry">
            <mxPoint x="460" y="490" as="sourcePoint" />
          </mxGeometry>
        </mxCell>
        <mxCell id="O71zmAS3OTAFvLwmvDvT-14" value="Node 1" style="ellipse;whiteSpace=wrap;html=1;rounded=0;shadow=1;comic=0;labelBackgroundColor=none;strokeWidth=1;fontFamily=Verdana;fontSize=12;align=center;fontColor=none;noLabel=1;" parent="1" vertex="1">
          <mxGeometry x="315" y="680" width="60" height="60" as="geometry" />
        </mxCell>
        <mxCell id="O71zmAS3OTAFvLwmvDvT-15" value="relation" style="edgeStyle=none;rounded=1;labelBackgroundColor=none;startArrow=none;startFill=0;endArrow=none;endFill=0;jettySize=auto;orthogonalLoop=1;strokeColor=#1E8CFF;strokeWidth=4;fontFamily=Verdana;fontSize=12;flowAnimation=0;shadow=0;html=1;fontColor=none;noLabel=1;exitX=1;exitY=1;exitDx=0;exitDy=0;" parent="1" source="O71zmAS3OTAFvLwmvDvT-4" target="O71zmAS3OTAFvLwmvDvT-16" edge="1">
          <mxGeometry relative="1" as="geometry">
            <mxPoint x="499" y="501" as="sourcePoint" />
          </mxGeometry>
        </mxCell>
        <mxCell id="O71zmAS3OTAFvLwmvDvT-16" value="Node 1" style="ellipse;whiteSpace=wrap;html=1;rounded=0;shadow=1;comic=0;labelBackgroundColor=none;strokeWidth=1;fontFamily=Verdana;fontSize=12;align=center;fontColor=none;noLabel=1;" parent="1" vertex="1">
          <mxGeometry x="445" y="680" width="60" height="60" as="geometry" />
        </mxCell>
        <mxCell id="O71zmAS3OTAFvLwmvDvT-17" value="relation" style="edgeStyle=none;rounded=1;labelBackgroundColor=none;startArrow=none;startFill=0;endArrow=none;endFill=0;jettySize=auto;orthogonalLoop=1;strokeColor=#1E8CFF;strokeWidth=4;fontFamily=Verdana;fontSize=12;flowAnimation=0;shadow=0;html=1;fontColor=none;noLabel=1;exitX=0;exitY=1;exitDx=0;exitDy=0;" parent="1" source="O71zmAS3OTAFvLwmvDvT-8" target="O71zmAS3OTAFvLwmvDvT-18" edge="1">
          <mxGeometry relative="1" as="geometry">
            <mxPoint x="679" y="470" as="sourcePoint" />
          </mxGeometry>
        </mxCell>
        <mxCell id="O71zmAS3OTAFvLwmvDvT-18" value="Node 1" style="ellipse;whiteSpace=wrap;html=1;rounded=0;shadow=1;comic=0;labelBackgroundColor=none;strokeWidth=1;fontFamily=Verdana;fontSize=12;align=center;fontColor=none;noLabel=1;" parent="1" vertex="1">
          <mxGeometry x="575" y="680" width="60" height="60" as="geometry" />
        </mxCell>
        <mxCell id="O71zmAS3OTAFvLwmvDvT-19" value="relation" style="edgeStyle=none;rounded=1;labelBackgroundColor=none;startArrow=none;startFill=0;endArrow=none;endFill=0;jettySize=auto;orthogonalLoop=1;strokeColor=#1E8CFF;strokeWidth=4;fontFamily=Verdana;fontSize=12;flowAnimation=0;shadow=0;html=1;fontColor=none;noLabel=1;exitX=1;exitY=1;exitDx=0;exitDy=0;" parent="1" source="O71zmAS3OTAFvLwmvDvT-8" target="O71zmAS3OTAFvLwmvDvT-20" edge="1">
          <mxGeometry relative="1" as="geometry">
            <mxPoint x="729" y="480" as="sourcePoint" />
          </mxGeometry>
        </mxCell>
        <mxCell id="O71zmAS3OTAFvLwmvDvT-20" value="Node 1" style="ellipse;whiteSpace=wrap;html=1;rounded=0;shadow=1;comic=0;labelBackgroundColor=none;strokeWidth=1;fontFamily=Verdana;fontSize=12;align=center;fontColor=none;noLabel=1;" parent="1" vertex="1">
          <mxGeometry x="705" y="680" width="60" height="60" as="geometry" />
        </mxCell>
        <mxCell id="O71zmAS3OTAFvLwmvDvT-21" value="relation" style="edgeStyle=none;rounded=1;labelBackgroundColor=none;startArrow=none;startFill=0;endArrow=none;endFill=0;jettySize=auto;orthogonalLoop=1;strokeColor=#1E8CFF;strokeWidth=4;fontFamily=Verdana;fontSize=12;flowAnimation=0;shadow=0;html=1;fontColor=none;noLabel=1;exitX=0;exitY=1;exitDx=0;exitDy=0;" parent="1" source="O71zmAS3OTAFvLwmvDvT-6" target="O71zmAS3OTAFvLwmvDvT-22" edge="1">
          <mxGeometry relative="1" as="geometry">
            <mxPoint x="959" y="470" as="sourcePoint" />
          </mxGeometry>
        </mxCell>
        <mxCell id="O71zmAS3OTAFvLwmvDvT-22" value="Node 1" style="ellipse;whiteSpace=wrap;html=1;rounded=0;shadow=1;comic=0;labelBackgroundColor=none;strokeWidth=1;fontFamily=Verdana;fontSize=12;align=center;fontColor=none;noLabel=1;" parent="1" vertex="1">
          <mxGeometry x="835" y="680" width="60" height="60" as="geometry" />
        </mxCell>
        <mxCell id="O71zmAS3OTAFvLwmvDvT-23" value="relation" style="edgeStyle=none;rounded=1;labelBackgroundColor=none;startArrow=none;startFill=0;endArrow=none;endFill=0;jettySize=auto;orthogonalLoop=1;strokeColor=#1E8CFF;strokeWidth=4;fontFamily=Verdana;fontSize=12;flowAnimation=0;shadow=0;html=1;fontColor=none;noLabel=1;exitX=1;exitY=1;exitDx=0;exitDy=0;" parent="1" source="O71zmAS3OTAFvLwmvDvT-6" target="O71zmAS3OTAFvLwmvDvT-24" edge="1">
          <mxGeometry relative="1" as="geometry">
            <mxPoint x="1090" y="580" as="sourcePoint" />
          </mxGeometry>
        </mxCell>
        <mxCell id="O71zmAS3OTAFvLwmvDvT-24" value="Node 1" style="ellipse;whiteSpace=wrap;html=1;rounded=0;shadow=1;comic=0;labelBackgroundColor=none;strokeWidth=1;fontFamily=Verdana;fontSize=12;align=center;fontColor=none;noLabel=1;" parent="1" vertex="1">
          <mxGeometry x="965" y="680" width="60" height="60" as="geometry" />
        </mxCell>
        <mxCell id="O71zmAS3OTAFvLwmvDvT-25" value="relation" style="edgeStyle=none;rounded=1;labelBackgroundColor=none;startArrow=none;startFill=0;endArrow=none;endFill=0;jettySize=auto;orthogonalLoop=1;strokeColor=#1E8CFF;strokeWidth=9;fontFamily=Verdana;fontSize=12;flowAnimation=0;shadow=0;html=1;fontColor=none;noLabel=1;entryX=0.5;entryY=0;entryDx=0;entryDy=0;exitX=0.5;exitY=1;exitDx=0;exitDy=0;" parent="1" source="O71zmAS3OTAFvLwmvDvT-26" target="1ea317790d2ca983-1" edge="1">
          <mxGeometry relative="1" as="geometry">
            <mxPoint x="550" y="140" as="sourcePoint" />
            <mxPoint x="490" y="152" as="targetPoint" />
          </mxGeometry>
        </mxCell>
        <mxCell id="O71zmAS3OTAFvLwmvDvT-26" value="" style="ellipse;whiteSpace=wrap;html=1;aspect=fixed;" parent="1" vertex="1">
          <mxGeometry x="460" y="40" width="160" height="160" as="geometry" />
        </mxCell>
      </root>
    </mxGraphModel>
  </diagram>
</mxfile>
